<?xml version="1.0" encoding="UTF-8"?>
<svg width="700pt" height="700pt" version="1.1" viewBox="0 0 700 700" fill="#ffffff" xmlns="http://www.w3.org/2000/svg"
    xmlns:xlink="http://www.w3.org/1999/xlink">
    <defs>
        <symbol id="v" overflow="visible">
            <path
                d="m18.766-1.125c-0.96875 0.5-1.9805 0.875-3.0312 1.125-1.043 0.25781-2.1367 0.39062-3.2812 0.39062-3.3984 0-6.0898-0.94531-8.0781-2.8438-1.9922-1.9062-2.9844-4.4844-2.9844-7.7344 0-3.2578 0.99219-5.8359 2.9844-7.7344 1.9883-1.9062 4.6797-2.8594 8.0781-2.8594 1.1445 0 2.2383 0.13281 3.2812 0.39062 1.0508 0.25 2.0625 0.625 3.0312 1.125v4.2188c-0.98047-0.65625-1.9453-1.1406-2.8906-1.4531-0.94922-0.3125-1.9492-0.46875-3-0.46875-1.875 0-3.3516 0.60547-4.4219 1.8125-1.0742 1.1992-1.6094 2.8555-1.6094 4.9688 0 2.1055 0.53516 3.7617 1.6094 4.9688 1.0703 1.1992 2.5469 1.7969 4.4219 1.7969 1.0508 0 2.0508-0.14844 3-0.45312 0.94531-0.3125 1.9102-0.80078 2.8906-1.4688z" />
        </symbol>
        <symbol id="b" overflow="visible">
            <path
                d="m13.734-11.141c-0.4375-0.19531-0.87109-0.34375-1.2969-0.4375-0.41797-0.10156-0.83984-0.15625-1.2656-0.15625-1.2617 0-2.2305 0.40625-2.9062 1.2188-0.67969 0.80469-1.0156 1.9531-1.0156 3.4531v7.0625h-4.8906v-15.312h4.8906v2.5156c0.625-1 1.3438-1.7266 2.1562-2.1875 0.82031-0.46875 1.8008-0.70312 2.9375-0.70312 0.16406 0 0.34375 0.011719 0.53125 0.03125 0.19531 0.011719 0.47656 0.039062 0.84375 0.078125z" />
        </symbol>
        <symbol id="a" overflow="visible">
            <path
                d="m17.641-7.7031v1.4062h-11.453c0.125 1.1484 0.53906 2.0078 1.25 2.5781 0.70703 0.57422 1.7031 0.85938 2.9844 0.85938 1.0312 0 2.082-0.14844 3.1562-0.45312 1.082-0.3125 2.1914-0.77344 3.3281-1.3906v3.7656c-1.1562 0.4375-2.3125 0.76562-3.4688 0.98438-1.1562 0.22656-2.3125 0.34375-3.4688 0.34375-2.7734 0-4.9297-0.70312-6.4688-2.1094-1.5312-1.4062-2.2969-3.3789-2.2969-5.9219 0-2.5 0.75391-4.4609 2.2656-5.8906 1.5078-1.4375 3.582-2.1562 6.2188-2.1562 2.4062 0 4.332 0.73047 5.7812 2.1875 1.4453 1.4492 2.1719 3.3828 2.1719 5.7969zm-5.0312-1.625c0-0.92578-0.27344-1.6719-0.8125-2.2344-0.54297-0.57031-1.25-0.85938-2.125-0.85938-0.94922 0-1.7188 0.26562-2.3125 0.79688s-0.96484 1.2969-1.1094 2.2969z" />
        </symbol>
        <symbol id="e" overflow="visible">
            <path
                d="m9.2188-6.8906c-1.0234 0-1.793 0.17188-2.3125 0.51562-0.51172 0.34375-0.76562 0.85547-0.76562 1.5312 0 0.625 0.20703 1.1172 0.625 1.4688 0.41406 0.34375 0.98828 0.51562 1.7188 0.51562 0.92578 0 1.7031-0.32812 2.3281-0.98438 0.63281-0.66406 0.95312-1.4922 0.95312-2.4844v-0.5625zm7.4688-1.8438v8.7344h-4.9219v-2.2656c-0.65625 0.92969-1.3984 1.6055-2.2188 2.0312-0.82422 0.41406-1.8242 0.625-3 0.625-1.5859 0-2.8711-0.45703-3.8594-1.375-0.99219-0.92578-1.4844-2.1289-1.4844-3.6094 0-1.7891 0.61328-3.1016 1.8438-3.9375 1.2383-0.84375 3.1797-1.2656 5.8281-1.2656h2.8906v-0.39062c0-0.76953-0.30859-1.332-0.92188-1.6875-0.61719-0.36328-1.5703-0.54688-2.8594-0.54688-1.0547 0-2.0312 0.10547-2.9375 0.3125-0.89844 0.21094-1.7305 0.52344-2.5 0.9375v-3.7344c1.0391-0.25 2.0859-0.44141 3.1406-0.57812 1.0625-0.13281 2.125-0.20312 3.1875-0.20312 2.7578 0 4.75 0.54688 5.9688 1.6406 1.2266 1.0859 1.8438 2.8555 1.8438 5.3125z" />
        </symbol>
        <symbol id="d" overflow="visible">
            <path
                d="m7.7031-19.656v4.3438h5.0469v3.5h-5.0469v6.5c0 0.71094 0.14062 1.1875 0.42188 1.4375s0.83594 0.375 1.6719 0.375h2.5156v3.5h-4.1875c-1.9375 0-3.3125-0.39844-4.125-1.2031-0.80469-0.8125-1.2031-2.1797-1.2031-4.1094v-6.5h-2.4219v-3.5h2.4219v-4.3438z" />
        </symbol>
        <symbol id="c" overflow="visible">
            <path
                d="m12.766-13.078v-8.2031h4.9219v21.281h-4.9219v-2.2188c-0.66797 0.90625-1.4062 1.5703-2.2188 1.9844s-1.7578 0.625-2.8281 0.625c-1.8867 0-3.4336-0.75-4.6406-2.25-1.2109-1.5-1.8125-3.4258-1.8125-5.7812 0-2.3633 0.60156-4.2969 1.8125-5.7969 1.207-1.5 2.7539-2.25 4.6406-2.25 1.0625 0 2 0.21484 2.8125 0.64062 0.82031 0.42969 1.5664 1.0859 2.2344 1.9688zm-3.2188 9.9219c1.0391 0 1.8359-0.37891 2.3906-1.1406 0.55078-0.76953 0.82812-1.8828 0.82812-3.3438 0-1.457-0.27734-2.5664-0.82812-3.3281-0.55469-0.76953-1.3516-1.1562-2.3906-1.1562-1.043 0-1.8398 0.38672-2.3906 1.1562-0.55469 0.76172-0.82812 1.8711-0.82812 3.3281 0 1.4609 0.27344 2.5742 0.82812 3.3438 0.55078 0.76172 1.3477 1.1406 2.3906 1.1406z" />
        </symbol>
        <symbol id="k" overflow="visible">
            <path
                d="m10.5-3.1562c1.0508 0 1.8516-0.37891 2.4062-1.1406 0.55078-0.76953 0.82812-1.8828 0.82812-3.3438 0-1.457-0.27734-2.5664-0.82812-3.3281-0.55469-0.76953-1.3555-1.1562-2.4062-1.1562-1.0547 0-1.8594 0.38672-2.4219 1.1562-0.55469 0.77344-0.82812 1.8828-0.82812 3.3281 0 1.4492 0.27344 2.5586 0.82812 3.3281 0.5625 0.77344 1.3672 1.1562 2.4219 1.1562zm-3.25-9.9219c0.67578-0.88281 1.4219-1.5391 2.2344-1.9688 0.82031-0.42578 1.7656-0.64062 2.8281-0.64062 1.8945 0 3.4453 0.75 4.6562 2.25 1.207 1.5 1.8125 3.4336 1.8125 5.7969 0 2.3555-0.60547 4.2812-1.8125 5.7812-1.2109 1.5-2.7617 2.25-4.6562 2.25-1.0625 0-2.0078-0.21094-2.8281-0.625-0.8125-0.42578-1.5586-1.0859-2.2344-1.9844v2.2188h-4.8906v-21.281h4.8906z" />
        </symbol>
        <symbol id="j" overflow="visible">
            <path
                d="m0.34375-15.312h4.8906l4.125 10.391 3.5-10.391h4.8906l-6.4375 16.766c-0.64844 1.6953-1.4023 2.8828-2.2656 3.5625-0.86719 0.6875-2 1.0312-3.4062 1.0312h-2.8438v-3.2188h1.5312c0.83203 0 1.4375-0.13672 1.8125-0.40625 0.38281-0.26172 0.67969-0.73047 0.89062-1.4062l0.14062-0.42188z" />
        </symbol>
        <symbol id="i" overflow="visible">
            <path
                d="m10.047-11.359c1.1016 0 1.8945-0.20312 2.375-0.60938 0.47656-0.41406 0.71875-1.0938 0.71875-2.0312 0-0.92578-0.24219-1.5859-0.71875-1.9844-0.48047-0.40625-1.2734-0.60938-2.375-0.60938h-2.2188v5.2344zm-2.2188 3.6406v7.7188h-5.25v-20.406h8.0312c2.6875 0 4.6562 0.45312 5.9062 1.3594 1.2578 0.89844 1.8906 2.3203 1.8906 4.2656 0 1.3555-0.32812 2.4648-0.98438 3.3281-0.64844 0.86719-1.625 1.5-2.9375 1.9062 0.71875 0.16797 1.3594 0.54297 1.9219 1.125 0.57031 0.57422 1.1484 1.4492 1.7344 2.625l2.8594 5.7969h-5.6094l-2.4844-5.0781c-0.5-1.0195-1.0117-1.7109-1.5312-2.0781-0.51172-0.375-1.1953-0.5625-2.0469-0.5625z" />
        </symbol>
        <symbol id="u" overflow="visible">
            <path d="m2.3594-15.312h4.8906v15.312h-4.8906zm0-5.9688h4.8906v4h-4.8906z" />
        </symbol>
        <symbol id="h" overflow="visible">
            <path
                d="m14.719-14.828v3.9844c-0.65625-0.45703-1.3242-0.79688-2-1.0156-0.66797-0.21875-1.3594-0.32812-2.0781-0.32812-1.3672 0-2.4336 0.40234-3.2031 1.2031-0.76172 0.79297-1.1406 1.9062-1.1406 3.3438 0 1.4297 0.37891 2.543 1.1406 3.3438 0.76953 0.79297 1.8359 1.1875 3.2031 1.1875 0.75781 0 1.4844-0.10938 2.1719-0.32812 0.6875-0.22656 1.3203-0.56641 1.9062-1.0156v4c-0.76172 0.28125-1.5391 0.48828-2.3281 0.625-0.78125 0.14453-1.5742 0.21875-2.375 0.21875-2.7617 0-4.9219-0.70703-6.4844-2.125-1.5547-1.4141-2.3281-3.3828-2.3281-5.9062 0-2.5312 0.77344-4.5039 2.3281-5.9219 1.5625-1.4141 3.7227-2.125 6.4844-2.125 0.80078 0 1.5938 0.074219 2.375 0.21875 0.78125 0.13672 1.5547 0.35156 2.3281 0.64062z" />
        </symbol>
        <symbol id="g" overflow="visible">
            <path
                d="m17.75-9.3281v9.3281h-4.9219v-7.1094c0-1.3438-0.03125-2.2656-0.09375-2.7656s-0.16797-0.86719-0.3125-1.1094c-0.1875-0.3125-0.44922-0.55469-0.78125-0.73438-0.32422-0.17578-0.69531-0.26562-1.1094-0.26562-1.0234 0-1.8242 0.39844-2.4062 1.1875-0.58594 0.78125-0.875 1.8711-0.875 3.2656v7.5312h-4.8906v-21.281h4.8906v8.2031c0.73828-0.88281 1.5195-1.5391 2.3438-1.9688 0.83203-0.42578 1.75-0.64062 2.75-0.64062 1.7695 0 3.1133 0.54688 4.0312 1.6406 0.91406 1.0859 1.375 2.6562 1.375 4.7188z" />
        </symbol>
        <symbol id="t" overflow="visible">
            <path
                d="m16.781-19.766v4.3125c-1.125-0.5-2.2266-0.875-3.2969-1.125-1.0625-0.25781-2.0703-0.39062-3.0156-0.39062-1.25 0-2.1797 0.17969-2.7812 0.53125-0.60547 0.34375-0.90625 0.88281-0.90625 1.6094 0 0.54297 0.20312 0.96875 0.60938 1.2812 0.40625 0.30469 1.1406 0.5625 2.2031 0.78125l2.25 0.45312c2.2695 0.44922 3.8789 1.1406 4.8281 2.0781 0.95703 0.92969 1.4375 2.2461 1.4375 3.9531 0 2.25-0.66797 3.9297-2 5.0312-1.3359 1.0938-3.3711 1.6406-6.1094 1.6406-1.3047 0-2.6055-0.125-3.9062-0.375-1.3047-0.23828-2.6055-0.59766-3.9062-1.0781v-4.4531c1.3008 0.69922 2.5625 1.2266 3.7812 1.5781 1.2188 0.34375 2.3906 0.51562 3.5156 0.51562 1.1562 0 2.0352-0.1875 2.6406-0.5625 0.61328-0.38281 0.92188-0.9375 0.92188-1.6562 0-0.63281-0.21094-1.125-0.625-1.4688-0.41797-0.34375-1.2461-0.65625-2.4844-0.9375l-2.0312-0.4375c-2.043-0.4375-3.5391-1.1328-4.4844-2.0938-0.9375-0.95703-1.4062-2.25-1.4062-3.875 0-2.0312 0.65625-3.5938 1.9688-4.6875s3.1953-1.6406 5.6562-1.6406c1.125 0 2.2734 0.085938 3.4531 0.25 1.1875 0.16797 2.4141 0.42188 3.6875 0.76562z" />
        </symbol>
        <symbol id="s" overflow="visible">
            <path d="m2.3594-21.281h4.8906v21.281h-4.8906z" />
        </symbol>
        <symbol id="r" overflow="visible">
            <path
                d="m12.422-21.281v3.2188h-2.7031c-0.6875 0-1.1719 0.125-1.4531 0.375-0.27344 0.25-0.40625 0.6875-0.40625 1.3125v1.0625h4.1875v3.5h-4.1875v11.812h-4.8906v-11.812h-2.4375v-3.5h2.4375v-1.0625c0-1.6641 0.46094-2.8984 1.3906-3.7031 0.92578-0.80078 2.3672-1.2031 4.3281-1.2031z" />
        </symbol>
        <symbol id="f" overflow="visible">
            <path
                d="m9.6406-12.188c-1.0859 0-1.9141 0.39062-2.4844 1.1719-0.57422 0.78125-0.85938 1.9062-0.85938 3.375s0.28516 2.5938 0.85938 3.375c0.57031 0.77344 1.3984 1.1562 2.4844 1.1562 1.0625 0 1.875-0.38281 2.4375-1.1562 0.57031-0.78125 0.85938-1.9062 0.85938-3.375s-0.28906-2.5938-0.85938-3.375c-0.5625-0.78125-1.375-1.1719-2.4375-1.1719zm0-3.5c2.6328 0 4.6914 0.71484 6.1719 2.1406 1.4766 1.418 2.2188 3.3867 2.2188 5.9062 0 2.5117-0.74219 4.4805-2.2188 5.9062-1.4805 1.418-3.5391 2.125-6.1719 2.125-2.6484 0-4.7148-0.70703-6.2031-2.125-1.4922-1.4258-2.2344-3.3945-2.2344-5.9062 0-2.5195 0.74219-4.4883 2.2344-5.9062 1.4883-1.4258 3.5547-2.1406 6.2031-2.1406z" />
        </symbol>
        <symbol id="q" overflow="visible">
            <path
                d="m16.547-12.766c0.61328-0.94531 1.3477-1.6719 2.2031-2.1719 0.85156-0.5 1.7891-0.75 2.8125-0.75 1.7578 0 3.0977 0.54688 4.0156 1.6406 0.92578 1.0859 1.3906 2.6562 1.3906 4.7188v9.3281h-4.9219v-7.9844-0.35938c0.007813-0.13281 0.015625-0.32031 0.015625-0.5625 0-1.082-0.16406-1.8633-0.48438-2.3438-0.3125-0.48828-0.82422-0.73438-1.5312-0.73438-0.92969 0-1.6484 0.38672-2.1562 1.1562-0.51172 0.76172-0.77344 1.8672-0.78125 3.3125v7.5156h-4.9219v-7.9844c0-1.6953-0.14844-2.7852-0.4375-3.2656-0.29297-0.48828-0.8125-0.73438-1.5625-0.73438-0.9375 0-1.6641 0.38672-2.1719 1.1562-0.51172 0.76172-0.76562 1.8594-0.76562 3.2969v7.5312h-4.9219v-15.312h4.9219v2.2344c0.60156-0.86328 1.2891-1.5156 2.0625-1.9531 0.78125-0.4375 1.6406-0.65625 2.5781-0.65625 1.0625 0 2 0.25781 2.8125 0.76562 0.8125 0.51172 1.4258 1.2305 1.8438 2.1562z" />
        </symbol>
        <symbol id="p" overflow="visible">
            <path d="m2.5781-20.406h5.875l7.4219 14v-14h4.9844v20.406h-5.875l-7.4219-14v14h-4.9844z" />
        </symbol>
        <symbol id="o" overflow="visible">
            <path
                d="m2.1875-5.9688v-9.3438h4.9219v1.5312c0 0.83594-0.007813 1.875-0.015625 3.125-0.011719 1.25-0.015625 2.0859-0.015625 2.5 0 1.2422 0.03125 2.1328 0.09375 2.6719 0.070313 0.54297 0.17969 0.93359 0.32812 1.1719 0.20703 0.32422 0.47266 0.57422 0.79688 0.75 0.32031 0.16797 0.69141 0.25 1.1094 0.25 1.0195 0 1.8203-0.39062 2.4062-1.1719 0.58203-0.78125 0.875-1.8672 0.875-3.2656v-7.5625h4.8906v15.312h-4.8906v-2.2188c-0.74219 0.89844-1.5234 1.5586-2.3438 1.9844-0.82422 0.41406-1.7344 0.625-2.7344 0.625-1.7617 0-3.1055-0.53906-4.0312-1.625-0.92969-1.082-1.3906-2.6602-1.3906-4.7344z" />
        </symbol>
        <symbol id="n" overflow="visible">
            <path
                d="m17.75-9.3281v9.3281h-4.9219v-7.1406c0-1.3203-0.03125-2.2344-0.09375-2.7344s-0.16797-0.86719-0.3125-1.1094c-0.1875-0.3125-0.44922-0.55469-0.78125-0.73438-0.32422-0.17578-0.69531-0.26562-1.1094-0.26562-1.0234 0-1.8242 0.39844-2.4062 1.1875-0.58594 0.78125-0.875 1.8711-0.875 3.2656v7.5312h-4.8906v-15.312h4.8906v2.2344c0.73828-0.88281 1.5195-1.5391 2.3438-1.9688 0.83203-0.42578 1.75-0.64062 2.75-0.64062 1.7695 0 3.1133 0.54688 4.0312 1.6406 0.91406 1.0859 1.375 2.6562 1.375 4.7188z" />
        </symbol>
        <symbol id="m" overflow="visible">
            <path
                d="m2.5781-20.406h8.7344c2.5938 0 4.582 0.57812 5.9688 1.7344 1.3945 1.1484 2.0938 2.7891 2.0938 4.9219 0 2.1367-0.69922 3.7812-2.0938 4.9375-1.3867 1.1562-3.375 1.7344-5.9688 1.7344h-3.4844v7.0781h-5.25zm5.25 3.8125v5.7031h2.9219c1.0195 0 1.8047-0.25 2.3594-0.75 0.5625-0.5 0.84375-1.2031 0.84375-2.1094 0-0.91406-0.28125-1.6172-0.84375-2.1094-0.55469-0.48828-1.3398-0.73438-2.3594-0.73438z" />
        </symbol>
        <symbol id="l" overflow="visible">
            <path
                d="m2.3594-15.312h4.8906v15.031c0 2.0508-0.49609 3.6172-1.4844 4.7031-0.98047 1.082-2.4062 1.625-4.2812 1.625h-2.4219v-3.2188h0.85938c0.92578 0 1.5625-0.21094 1.9062-0.625 0.35156-0.41797 0.53125-1.2461 0.53125-2.4844zm0-5.9688h4.8906v4h-4.8906z" />
        </symbol>
    </defs>
    <g>
        <path d="m586.88 387.52c0-1.6797 2.8008-10.078 3.9219-8.3984-0.5625 2.8008-2.2422 5.0391-3.9219 8.3984" />
        <path
            d="m440.72 44.801c0 0.55859-0.55859 0-1.6797 0-0.55859 0 0.55859 0.55859 1.1211 1.1211-5.0391-0.55859-11.199-3.9219-17.922-5.0391 1.6836-1.1211 10.641 1.6758 18.48 3.918" />
        <path
            d="m575.68 179.2c1.1211 0-1.6797-3.9219-2.2383-3.9219-1.1211-3.3594 2.2383 1.1211 3.9219 4.4805-0.55859 0-1.1211 2.2383-2.8008-2.2383-0.003906 0 0.55859 0.55859 1.1172 1.6797" />
        <path
            d="m448.56 59.922c1.1211 0 10.078 4.4805 15.121 6.1602-1.6797 0.55859-5.6016-1.1211-10.078-2.8008 1.1211 0 3.3594 0.55859 5.6016 1.6797-1.125-1.1211-9.5234-3.9219-10.645-5.0391m-83.438-17.363c1.6797-0.55859 21.277 2.2422 30.238 2.8008 0.5625-0.55859-1.1211-0.55859-3.3594-1.1211 2.8008-0.55859 8.3984 1.1211 12.32 1.6836-11.762 0.55859-24.641-2.8008-35.84-1.6797-3.9219-0.003907-1.1211-1.1211-3.3594-1.6836m-16.242 0c10.078 0 17.922 0 3.3594 1.1211-1.6797-0.55859-3.918-0.55859-3.3594-1.1211m158.48 46.48c1.1211 0 5.6016 5.0391 7.8398 6.7188-0.55859 0.55859-5.0391-3.9219-7.2812-5.6016 0.5625 0.5625 0.003906 0.003906-0.55859-1.1172m-11.199-7.2773c-4.4805-3.9219-6.1602-3.9219-6.7188-6.1602 3.918 2.2383 6.7188 4.4766 6.7188 6.1602m-72.238-35.281c0.55859-0.55859 1.6797 0.55859 4.4805 1.1211-3.3594-0.55859-2.8008 0-1.6797 1.1211-3.9219-0.5625-5.043-1.1211-3.9219-2.2422 2.2383 1.1211 2.8008 0.55859 1.1211 0m-159.04 6.7188c0-0.55859 2.2383-1.6797 3.9219-2.2383-1.6797 1.1211-1.1211 1.6797 1.6797 0.55859 0 0.55859-3.3594 1.6797-5.6016 2.8008 1.1211-0.55859 2.2422-2.2422 0-1.1211m170.24-12.32c-1.6797 0.55859-7.8398-2.8008-14-3.9219-3.3594-1.1172 13.438 2.8047 14 3.9219m-330.4 276.64c3.3594 14 1.1211 13.441 0 0m0.5625-84c0.55859-2.2383 1.1211-8.3984 1.6797-7.8398-1.6797 13.441-4.4805 19.602-5.0391 29.68 1.6797-8.9609-0.55859 5.0391-1.1211 8.3984 0.55859 4.4805 0.55859-2.8008 1.6797-1.6797 1.1211 1.6836-2.2422 25.203-1.1211 12.32-1.1211 11.762 0 24.641 2.2383 28-2.8008 17.922 11.199 58.238 14 66.641 0.55859 0.55859 0-2.8008 1.1211-0.55859 1.1211 7.2812 6.1602 12.32 7.8398 20.16 1.6797 2.2383 8.3984 14.559 9.5195 17.359 2.2383 4.4805 3.3594 3.9219 5.6016 8.3984 6.7188 12.879 17.359 25.199 27.441 36.961 32.48 38.082 82.32 69.441 137.76 80.641 55.441 11.762 113.68 3.3594 159.04-18.48 2.8008-1.6797 2.2383-2.2383 5.6016-3.3594 15.68-5.0391 34.719-21.281 45.359-27.441 5.0391-5.6016 18.48-15.121 20.16-20.719 9.5195-7.8398 19.039-20.719 24.078-29.121 2.8008-4.4805 5.0391-4.4805 6.1602-7.2812-0.55859 0 8.9609-11.762 11.762-18.48-1.1211 0-2.8008 3.3594-2.8008 0 20.16-38.641 31.359-90.719 25.199-126.56 1.1211 44.238-10.078 93.52-31.359 124.88-9.5195 20.16-29.121 42-47.039 57.68-2.8008 2.8008-5.6016 6.1602-8.9609 8.3984-10.641 8.9609-22.398 16.238-34.719 22.961-29.121 16.238-61.602 30.238-99.68 30.801 65.52-5.6016 124.32-38.641 156.8-78.961-24.641 24.078-35.281 33.602-62.719 47.602-2.2383 3.9219-20.719 11.762-33.039 15.121 7.2812-3.3594 22.398-8.9609 27.441-13.441-40.883 19.602-86.242 30.801-128.8 24.641 16.238 0 39.199 0.55859 61.039-3.3594 3.3594-1.1211 5.0391-2.2383 8.9609-2.8008 42.559-9.5195 83.441-30.238 112.56-59.359-16.801 15.121-42 33.039-58.238 38.641 15.121-8.3984 42.559-24.641 51.52-36.961-17.922 17.922-51.52 35.84-72.801 43.68-3.3594 0.55859 2.2383-2.2383-3.3594 0-6.7188 1.6797-3.9219 1.6797-5.6016 2.8008-25.762 7.2812-55.441 13.441-80.078 11.199-4.4805-0.55859-6.1602-1.6797-10.078-1.6797-4.4805-0.55859-8.3984-0.55859-13.441-0.55859-19.602-2.2383-40.879-10.078-56.559-16.801-8.3984-3.9219-16.801-6.7188-25.199-11.762-6.7188-3.9219-12.32-8.3984-17.922-12.879-21.281-15.68-39.199-31.359-56-53.762-30.238-42-45.922-94.641-43.68-146.72 2.2383-52.078 22.961-103.04 56-140.56-1.6797 1.6797 2.2383-3.9219 5.6016-7.2812 0 1.1211-0.55859 2.8008 3.3594-1.1211 3.3594-3.9219-1.1211-1.1211 0.55859-3.3594 34.719-38.078 95.199-68.879 157.36-70 2.2422-1.6758 6.1602-3.918 10.641-2.7969 0 0.55859-2.8008 0.55859-2.8008 0.55859 6.1602-0.55859 11.762-0.55859 14.559 0.55859 0.55859-0.55859-2.2383-1.1211 0-1.1211 3.9219 1.1211 5.0391 0 7.2812 1.1211-1.6797 0-3.3594 0-4.4805 0.55859 14 0 22.961 3.3594 36.961 4.4805-7.2812-1.6797-8.9609-1.6797-14.559-3.3594 6.1602 1.1211 8.9609 2.2383 11.762 1.6797-1.1211 0-0.55859-1.6797 0.55859-1.1211 11.199 2.8008 12.32 3.9219 24.078 7.8398 1.1211-1.1211-5.0391-1.6797-6.7188-3.3594 11.199 3.9219 21.281 6.7188 28 11.199-2.2383-1.6797-8.9609-3.9219-14-6.1602-0.55859 0.55859 1.6797 1.1211 2.2383 2.2383-5.6016-2.8008-13.441-5.6016-21.281-6.7188 6.7188 1.6797 11.199 3.9219 14 5.0391-6.1602-1.1211-14-5.0391-22.961-6.7188 14.559 4.4805 42 14.559 58.801 23.52-6.1602-3.9219-13.441-6.7188-17.359-8.9609 3.3594 0.55859 7.2812 2.8008 7.2812 1.6797 3.9219 1.6797 8.9609 5.6016 11.762 6.1602-5.0391-3.3594-15.121-8.3984-18.48-10.078 42 19.039 79.52 50.961 103.6 91.84 2.2383 3.9219 5.6016 12.879 8.3984 14-0.55859-2.8008-2.8008-4.4805-5.0391-8.9609 1.1211 0 1.1211-1.6797 0-3.3594-2.2383-2.8008 0 2.2383-2.2383-0.55859-10.078-18.48-22.398-34.719-41.441-52.641 10.641 10.078 2.8008 2.8008 0.55859-0.55859 14.559 12.879 31.359 34.719 38.641 45.922-1.1211-1.6797-1.6797-2.8008-1.1211-2.8008 13.441 22.961 21.84 43.68 30.238 73.359 0.55859 0.55859 0-2.2383 1.1211-0.55859 5.6016 23.52 7.2812 43.121 6.7188 61.039 4.4805-30.238-5.6016-77.281-23.52-114.24-2.2383-4.4805-2.2383-1.1211-4.4805-6.1602 0-1.6797-1.6797-5.0391-2.8008-7.2812-22.398-36.961-49.84-63.281-82.32-84 2.2383 1.1211 6.7188 4.4805 6.7188 3.9219-60.477-39.762-130.48-45.359-188.16-33.039-3.9219 1.6797-5.6016 3.3594-10.078 5.6016 8.3984-2.8008 13.441-3.3594 21.281-5.0391 1.6797-1.6797-7.2812 0.55859-3.3594-1.1211 0.55859 0.55859 7.8398-1.1211 9.5195-0.55859 0 0.55859-2.2383 1.1211-2.8008 1.6797 18.48-3.9219 37.52-4.4805 53.762-3.3594-9.5195 0.55859-26.879-1.1211-32.48 1.6797 5.6016-0.55859 13.441-1.1211 18.48-0.55859-6.7227-0.007813-19.043 0.55469-24.645 1.1133-0.55859-0.55859 8.9609-1.6797 2.8008-1.6797-2.8008 0.55859-7.2812 0.55859-8.9609 2.2383-48.16 4.4805-95.199 29.68-128.24 59.359-6.7188 5.6016-14.559 11.762-19.602 17.922-12.32 14-20.16 28-29.121 40.32 5.6016-11.762 17.922-29.68 32.48-44.801s30.238-28 38.641-34.719c0 2.2383 13.441-8.3984 18.48-11.762-3.3594 2.8008 2.2383-1.1211 3.3594-0.55859 17.922-10.641 32.48-14.559 48.719-20.719-3.9219 1.1211-7.2812 2.2383-7.8398 1.6797 3.9219-1.1211 6.1602-2.2383 5.6016-2.8008-15.68 4.4805-40.32 15.121-59.922 26.879 35.281-24.078 80.078-38.641 124.32-39.199 44.238-1.1211 87.359 10.078 121.52 28 22.961 10.078 44.801 28.559 62.16 46.48 5.0391 4.4805 1.1211-1.1211 8.3984 6.7188-2.2383-1.1211-3.9219-2.2383-1.1211 1.1211 4.4805 5.0391-1.1211-3.9219 6.1602 5.0391-0.55859 0-2.8008-2.8008-2.8008-1.6797 19.602 17.359 34.719 48.719 43.68 69.441-2.2383-8.3984-7.8398-20.16-12.32-28.559 13.441 24.641 17.922 39.199 23.52 61.039 2.2383 1.6797-1.1211-7.8398 1.1211-3.3594 0.55859 3.3594 1.1211 14 3.3594 15.68-1.6797-10.641-4.4805-23.52-6.7188-25.762 1.6797 1.1211-2.8008-12.879-5.6016-16.238-1.1211-8.9609-8.9609-24.641-15.68-36.398-24.074-47.043-67.195-85.684-115.36-106.96 0-1.1211-2.8008-2.2383-3.9219-3.3594-47.598-20.164-104.71-25.762-159.6-12.883-55.438 13.441-107.52 45.359-144.48 91.281 1.6797-5.6016 15.68-16.238 16.238-20.719-16.238 17.359-33.602 40.32-45.359 64.961-12.316 24.637-19.039 49.836-21.836 68.316" />
        <path d="m556.64 157.92c-1.6797-2.2383-3.3594-5.0391-3.9219-5.0391 1.6797 2.7969 2.8008 5.5977 3.9219 5.0391" />
        <path
            d="m378.56 495.6c1.1211-0.55859 0.55859-1.1211-2.2383-1.1211 1.6797 1.1211-2.8008 0.55859-2.8008 1.1211 3.9219-0.5625 2.2422 0.55859 5.0391 0" />
        <path
            d="m344.4 493.36c0-0.55859 0-1.1211 1.1211-0.55859h2.2383c0.55859 0.55859-1.6797 0.55859-1.1211 1.1211 7.8398 1.1211 10.078 0.55859 15.121 1.6797 0-0.55859 3.9219-1.1211 5.0391-0.55859-1.6797 0-2.8008 0-2.8008 0.55859 3.9219-0.55859 2.8008 0 6.1602 0.55859 1.1211-0.55859 2.8008-0.55859 3.9219-1.1211-3.3594 0-7.2812-1.1211-11.199-0.55859-2.2383-0.55859 2.2383-0.55859-2.2383-0.55859-2.8008 0-1.1211 0.55859-2.8008 1.1211-1.1211 0-2.8008 0-2.8008-0.55859s0.55859-0.55859 1.1211-0.55859c-6.1602-1.1211-10.641-1.6797-16.801-2.2383-1.1211 0.55078 0.5625 1.1133 5.0391 1.6719" />
        <path
            d="m495.04 464.8c-8.3984 5.6016-22.961 12.32-28 16.238 12.879-6.1602 21.84-10.641 30.238-16.801-1.6758 1.1211-1.6758 0.5625-2.2383 0.5625" />
        <path
            d="m397.6 499.52c2.8008 0 3.9219 0 4.4805 0.55859-6.1602 0-0.55859 0.55859-7.2812 1.1211-0.5625-0.55859 1.6797-1.1211 2.8008-1.6797m-7.2812 2.2422c0.55859 0.55859 3.9219 0.55859 7.2812 0.55859 2.2383-1.1211 5.6016-1.1211 9.5195-1.6797-1.6797-0.55859 1.1211-1.6797 0.55859-2.2383 5.0391-1.1211 14.559-2.8008 15.68-2.2383 1.1211-1.1211 4.4805-0.55859 6.1602-1.6797 0.55859 0.55859 3.3594-0.55859 1.1211 0.55859 3.9219-1.6797 6.7188-1.1211 8.9609-3.3594-2.2383 0.55859-3.9219 1.1211-3.9219 0.55859 3.3594-0.55859 10.641-3.3594 12.32-3.3594 3.3594-1.1211 5.0391-2.2383 8.9609-3.9219-1.1211-0.55859 3.3594-1.6797 1.6797-1.6797-17.922 6.7188-31.922 11.199-45.922 12.879-1.1211 0.55859 0 1.1211-2.8008 1.1211-2.2383-1.1211-12.32 1.1211-16.801 1.6797-1.6797 0.55859-0.55859 1.1211-2.8008 1.6797h-3.9219c3.3594-0.55859-5.6016-0.55859-2.2383-1.1211 1.1211 0 3.3594 0.55859 3.9219 0-1.6797 0-0.55859-0.55859 0-0.55859-7.2812 1.1211-7.2812 0-14.559 0.55859 0 0.55859 0 0.55859 1.1211 1.1211-2.2383 0-2.8008 0.55859-6.1602 0 0-0.55859 1.1211-0.55859 1.1211-0.55859-4.4805-0.55859-5.0391 0.55859-9.5195 0.55859 1.1211-0.55859 3.3594-1.1211-1.1211-1.6797-2.8008 0-0.55859 0.55859-2.2383 0.55859-4.4805-0.55859-7.2812-1.1211-11.199-1.6797-2.2383 0-3.3594 0.55859-7.2812-0.55859-1.6797 0.55859 3.3594 0.55859 2.8008 1.1211-1.1211 0-2.8008 0-5.0391-0.55859 1.1211-0.55859-1.6797-1.1211-5.0391-1.6797 0 0.55859 1.6797 0.55859 0 1.1211-2.2383-1.1211-3.3594-0.55859-7.2812-1.6797 0-0.55859-0.55859-0.55859-1.1211-1.1211-3.9219-1.1211-3.3594-0.55859-7.2812-1.6797-1.6797 0-2.2383 0-1.1211 1.1211 11.199 2.8008 19.602 3.3594 24.641 5.6016 3.3594-0.55859 2.2383-0.55859 7.2812-0.55859 0 0.55859 1.1211 0.55859 1.1211 1.1211 19.035 2.2305 34.156 2.7891 43.117 1.6719" />
        <path
            d="m305.76 481.6c-0.55859 0 1.1211 1.1211 0 0.55859-1.6797-0.55859 0-1.1211-2.8008-1.6797 0 0 0 1.1211-1.1211 0.55859l0.55859-1.1211c-3.3594-0.55859-3.9219-1.6797-7.2812-2.8008-0.55859 0.55859-0.55859 0-1.6797-0.55859 0 0.55859-5.0391-1.1211-5.0391-1.6797s2.8008 1.1211 2.8008 0.55859c-5.0391-2.2383-8.9609-4.4805-11.762-5.0391 0-1.6797-6.7188-2.8008-11.762-7.2812-1.6797-0.55859-2.8008-1.1211-2.8008-0.55859-1.1211-1.1211-3.3594-2.2383-0.55859-1.1211-3.9219-2.8008-6.7188-2.8008-11.199-6.7188-1.1211 1.1211 5.6016 3.9219 5.0391 5.0391 17.359 11.199 34.719 19.602 53.199 25.762 0.55859-0.55859 2.8008 0 1.6797-1.6797-2.7969-0.55859-5.0352-1.1211-7.2734-2.2383" />
        <path
            d="m337.68 490c-11.762-2.2383-11.762-2.8008-23.52-5.6016 0.55859 1.1211 0.55859 1.1211-1.1211 1.1211 6.7188 2.2383 11.199 3.3594 18.48 5.0391 1.1211 0 7.8398 1.6797 6.1602-0.55859" />
        <path
            d="m159.6 259.84c0 3.9219-0.55859 1.6797-1.1211 5.0391 0.55859 1.1211 1.1211 0.55859 1.6797-1.6797-1.1211 1.1211-0.55859-2.8008-0.55859-3.3594" />
        <path
            d="m162.4 243.6c0-1.1211 0.55859-2.8008 0.55859-2.8008 0.55859 0 0.55859 0.55859 0.55859 1.1211 2.2383-6.1602 2.8008-10.078 3.9219-16.801-1.1211-0.55859-1.6797 1.6797-2.8008 5.6016 0.55859 0 1.1211 0 0.55859 1.1211l0.003907 2.2344c-0.55859 0.55859 0-1.6797-1.1211-1.1211-2.2383 7.2812-1.6797 10.078-3.3594 14.559 0.55859 0.55859 0.55859 3.9219 0 5.0391v-2.8008c0 3.9219-0.55859 2.8008-1.1211 6.1602 0 1.1211 0.55859 2.8008 0.55859 3.9219 0.55859-3.3594 2.2383-6.7188 1.6797-11.199 0.55859-2.2383 0.55859 2.2383 1.1211-1.6797 0.003907-2.7969-0.55859-1.6758-0.55859-3.3555" />
        <path
            d="m382.48 505.12c-2.2383-0.55859-5.6016 0-5.6016-0.55859-15.68 1.6797-46.48-3.3594-58.801-6.1602 1.6797-0.55859-4.4805-1.6797-5.0391-2.2383-1.6797 0.55859-5.0391-1.1211-8.3984-1.6797-6.1602-3.9219-19.039-5.6016-24.078-10.641-8.3984-2.8008-12.879-6.1602-22.398-11.199h1.1211c-3.9219-1.6797-5.0391-3.3594-8.3984-4.4805l0.55859-0.55859c-6.1602-3.3594-12.879-10.078-21.84-16.238-2.2383-1.6797-12.32-11.199-16.238-15.121-1.6797-1.6797-3.9219-2.8008-1.1211-1.6797-0.55859-1.1211-1.1211-1.1211-1.1211-1.6797-3.3594-2.8008-5.0391-5.6016-9.5195-9.5195-1.1211-1.1211-0.55859-1.6797-2.2383-3.9219-1.1211-1.1211-1.6797-0.55859-2.8008-1.6797 3.9219 8.3984 12.32 14.559 19.039 22.398-1.6797-1.1211-4.4805-4.4805-3.9219-3.3594 0.55859 1.1211 6.7188 7.8398 5.0391 5.0391-0.55859 0.55859-2.2383-2.2383-2.2383-2.2383 2.8008 3.3594 5.0391 3.9219 6.1602 5.6016-0.55859 0.55859-3.9219-3.3594-2.2383-0.55859 5.0391 3.9219 6.1602 6.1602 10.078 9.5195-2.8008-2.8008-1.1211 0-3.9219-2.2383-4.4805-6.1602-11.199-8.9609-14.559-15.121-2.2383-2.8008-2.2383-1.6797-3.3594-2.8008 0.55859-1.1211-8.9609-10.641-7.8398-8.9609-2.8008-3.9219-2.8008-3.9219-3.9219-6.1602-1.6797-1.6797 0.55859 1.1211-1.1211-0.55859-0.55859-2.2383-5.6016-9.5195-8.9609-14l0.55859-0.55859c-3.3594-3.9219-5.6016-8.3984-8.9609-14.559 0 3.9219 10.078 18.48 10.078 19.602 0 0 4.4805 6.1602 6.1602 8.3984 6.1602 8.3984 12.879 17.359 19.039 22.961-1.1211-1.1211-2.2383-2.8008 0-1.1211 1.1211 1.1211 0.55859 1.6797 1.6797 3.3594 3.3594 3.3594 7.2812 6.7188 10.641 10.078-7.8398-6.1602-14.559-12.32-20.719-19.039 1.6797 0.55859 5.6016 5.6016 7.2812 6.1602-6.1602-5.6016-5.6016-6.7188-9.5195-11.762-2.2383-2.2383 1.1211 2.2383 0 1.6797-7.8398-8.3984-12.879-14-16.801-20.719 0-0.55859 0-0.55859-0.55859-1.6797-0.55859-0.55859-1.1211-1.1211-1.1211-1.6797 3.3594 4.4805 5.6016 7.8398 7.8398 9.5195-1.6797-2.2383-1.1211-2.2383-2.8008-4.4805-1.6797-2.2383-1.1211-0.55859-2.8008-2.2383 0-1.1211-1.6797-3.3594-2.2383-5.0391-0.55859 0-1.1211-1.1211-2.2383-2.2383-1.1211-1.1211-0.55859-0.55859-0.55859 0.55859-0.55859-0.55859-1.1211-1.6797-1.6797-2.2383v-0.55859c-0.55859-1.1211-1.1211-2.2383-2.2383-3.3594-6.7188-12.32-13.441-29.121-17.922-42-1.1211-6.7188-5.0391-22.961-6.1602-26.879 0-2.8008-2.2383-18.48-2.8008-20.719-0.55859 1.1211 1.1211 8.9609 0.55859 10.641-1.1211-14.02-0.55859-30.816 0-44.258 0.55859 0 0.55859 0 0.55859-1.1211-0.55859-1.6797 0.55859-6.1602 0.55859-10.641 1.1211-6.1602-2.2383 8.9609-2.2383 14.559 0 1.1211-0.55859 0.55859-0.55859 3.3594 0 5.0391 0.55859 14 0 20.16-0.55859 0-0.55859-1.1211-0.55859-1.1211v10.078c0-1.6797-0.55859-2.8008-0.55859-3.9219-2.2383-16.238-1.1211-34.719 0-48.16 0.55859 0 1.1211-3.9219 1.6797-5.0391-0.55859 5.0391-1.6797 11.762-0.55859 12.879 2.8008-43.68 22.961-96.32 57.68-134.4 1.6797-0.55859-2.2383 4.4805-2.8008 5.6016 12.879-14.559 24.078-26.32 38.078-35.84-0.55859 1.6797-6.1602 5.0391-7.2812 6.7188 6.7188-5.0391 7.2812-5.0391 12.32-7.8398 2.8008-1.6797-2.2383 1.1211-1.1211 0 3.9219-2.8008 7.2812-5.0391 10.078-6.7188-0.55859 0-0.55859 0.55859-1.1211 0.55859 6.1602-3.3594 7.8398-5.0391 12.879-7.2812-0.55859 0-1.6797 0-2.8008 1.1211 1.6797-1.1211 3.3594-1.6797 5.0391-2.8008-0.55859 0-1.1211 0.55859-1.6797 0.55859 3.9219-2.2383 0 0 0 0.55859 0.55859 0 1.1211-0.55859 1.6797-0.55859-3.9219 2.2383-6.7188 3.9219-8.9609 5.6016 2.2383-1.1211 2.2383-1.1211 4.4805-2.2383 2.8008-1.1211 0.55859-1.1211 2.2383-2.2383 1.1211 0 3.3594-1.1211 5.0391-1.6797 0-0.55859 1.1211-1.1211 2.8008-1.6797 1.1211-0.55859 0.55859-0.55859 0-0.55859 0.55859-0.55859 1.6797-0.55859 2.2383-1.1211h0.55859c11.199-5.0391 23.52-9.5195 35.281-12.879 6.7188-1.1211 15.68-2.8008 19.602-4.4805-1.1211 0-2.2383 0.55859-2.8008 0.55859 0.55859 0 1.6797-0.55859 2.2383-0.55859 1.1211 0 3.3594-0.55859 1.1211 0.55859h1.1211 0.55859c1.1211 0 1.6797-0.55859 2.2383-0.55859h1.6797-0.55859c5.6016-1.1211 9.5195-1.1211 16.801-1.6797v-0.55859c1.1211 0 2.2383 0 2.8008-0.55859 2.2383-0.55859 5.0391 0 5.0391 0h1.1211s-0.55859 0.55859-1.1211 0.55859c2.8008 0 5.6016 0 6.1602-0.55859h-2.2383c1.6797 0 2.8008 0 4.4805-0.55859 1.6797 0 2.2383 0.55859 2.2383 1.1211 2.8008-1.6797 14 0.55859 17.922 0.55859 1.6797 0 1.1211-0.55859 2.2383-0.55859h2.2383c3.3594 1.1211 7.8398 1.6797 13.441 2.8008-5.0391-1.1211 0.55859-0.55859 1.1211-0.55859-1.1211 0-1.6797-0.55859-1.6797-0.55859 2.2383 0.55859 3.9219 0.55859 5.6016 1.1211 0 0 0.55859 0.55859 2.2383 1.1211h1.1211c1.6797 0.55859 3.3594 0.55859 5.0391 1.1211 0 0.55859 3.9219 1.6797 5.0391 2.2383-5.0391-1.1211-11.199-2.8008-12.879-2.2383 27.441 5.0391 57.121 17.359 83.441 35.281l1.1211 1.1211c2.8008 1.6797 5.6016 3.9219 8.3984 6.1602 3.3594 3.3594 6.7188 6.7188 8.9609 7.8398 11.762 12.32 20.719 20.16 30.801 34.16-0.55859-1.6797 3.3594 5.0391 5.0391 6.7188-2.8008-2.2383 2.8008 3.9219 0 1.1211 3.9219 5.6016 5.0391 6.7188 7.2812 11.762-1.6797-2.8008-1.6797-3.3594-1.6797-1.6797 1.1211 2.8008 2.2383 1.1211 3.9219 5.0391-1.6797-1.1211 0 1.1211 1.1211 4.4805 0-1.1211-0.55859-2.8008 0.55859-1.6797 1.6797 2.8008 0.55859 2.2383 1.6797 3.9219 0-1.6797 0.55859 0 2.2383 1.1211-1.1211-0.55859 2.2383 5.0391 0 2.2383 2.2383 3.9219 2.8008 5.6016 3.3594 7.8398-2.2383-4.4805-2.2383-6.1602-3.3594-6.7188 5.0391 7.8398 7.8398 20.16 11.199 24.078-1.6797-0.55859 1.1211 3.3594 0 3.3594 1.6797 2.2383 2.2383 6.7188 3.9219 8.9609 0.55859 2.8008 0.55859 4.4805 1.1211 7.2812 1.1211 2.8008 2.2383 7.8398 3.3594 8.9609-0.55859 1.6797 1.1211 6.7188 0.55859 8.3984 0.55859-1.1211 1.1211-1.1211 1.6797 1.6797-0.55859 2.2383 0.55859 5.6016 0 5.6016 3.9219 15.121 1.6797 47.039 1.1211 58.801-1.1211-1.6797-1.1211 5.0391-1.6797 5.0391 1.1211 1.6797-0.55859 5.0391-0.55859 8.3984-3.3594 6.7188-3.3594 19.602-7.8398 25.199-1.6797 8.3984-4.4805 13.441-8.3984 23.52v-1.1211c-1.6797 3.9219-2.8008 5.6016-3.3594 8.9609l-0.55859-0.55859c-2.2383 6.1602-8.3984 14-13.441 23.52-1.1211 2.8008-9.5195 13.441-12.879 17.359-1.1211 1.6797-2.2383 4.4805-1.6797 1.6797-0.55859 1.1211-1.1211 1.1211-1.6797 1.1211-2.2383 3.9219-5.0391 5.6016-8.3984 10.641-1.1211 1.1211-1.6797 0.55859-3.3594 2.2383-0.55859 1.1211-0.55859 1.6797-1.6797 2.8008 7.8398-5.0391 12.879-14 19.602-21.281-1.1211 1.6797-3.9219 4.4805-2.8008 4.4805 1.1211-0.55859 6.7188-7.8398 4.4805-5.6016 0.55859 0.55859-2.2383 2.8008-2.2383 2.2383 2.8008-2.8008 3.3594-5.0391 5.0391-6.7188 0.55859 0.55859-2.8008 3.9219-0.55859 2.2383 3.3594-5.6016 5.0391-6.7188 8.3984-10.641-2.2383 3.3594 0.55859 1.1211-1.6797 3.9219-5.6016 5.0391-7.8398 11.762-13.441 16.238-2.2383 2.2383-1.1211 2.2383-2.2383 3.3594-1.1211 0-9.5195 10.078-7.8398 8.3984-3.3594 3.3594-3.9219 3.3594-5.6016 4.4805-1.6797 1.6797 1.1211-0.55859 0 1.1211-2.2383 0.55859-8.3984 6.7188-12.879 10.641l-0.55859-0.55859c-3.3594 3.9219-7.8398 6.1602-13.441 10.641 3.9219-0.55859 16.801-12.32 18.48-12.32 0 0 5.6016-5.6016 7.8398-7.2812 7.8398-7.2812 15.68-14.559 20.719-21.281-0.55859 1.1211-2.8008 2.2383-1.1211 0.55859 1.1211-1.1211 1.6797-0.55859 2.8008-1.6797 10.641-14 20.16-27.441 28.559-44.801 0-0.55859 0.55859-0.55859 0.55859-1.1211-1.1211 2.8008-2.8008 5.6016-3.9219 8.3984-6.1602 8.9609-14.559 26.32-21.84 33.039-2.2383 5.0391-6.1602 8.3984-11.199 15.68-1.6797 2.2383-1.1211 0-3.3594 2.8008-2.2383 5.0391-12.879 11.762-15.68 16.238-1.6797 1.1211-2.8008 2.2383-4.4805 3.3594h-0.55859l-0.55859 0.55859c-3.3594 2.8008-6.7188 5.0391-9.5195 7.8398-8.3984 5.6016-19.039 11.762-28.559 17.359-2.8008 1.6797-5.6016 2.2383-5.6016 3.3594-2.2383 1.1211-3.9219 2.2383-6.1602 3.3594-0.55859 0-0.55859 0-1.1211 0.55859h-1.1211c-1.1211 0-1.6797 0.55859-1.6797 1.1211-7.2812 2.8008-19.039 6.7188-22.398 8.3984-2.8008 0-17.922 4.4805-20.719 5.0391 1.1211 0.55859 5.6016-1.1211 8.3984-1.6797-2.2383 0.55859-3.9219 1.1211-5.6016 1.6797-0.55859 0-1.1211 0-1.6797 0.55859-0.55859-0.55859-2.8008 0.55859-3.3594 0.55859h0.55859c-0.55859-0.55859-2.2383-0.55859-5.6016 0 0 0.55859-0.55859 0.55859-1.1211 1.1211 1.6797 0 5.0391-1.1211 5.0391-1.1211-0.55859 0-0.55859 0.55859-0.55859 0-1.1211 0.55859-2.8008 1.1211-4.4805 1.1211-2.8008 0.55859-6.1602 1.1211-8.9609 1.1211h-2.2383c-0.55859 0-1.6797 0.55859-2.8008 0.55859-4.4805 0.55859-8.3984 1.1211-12.32 1.1211 0 0 0-0.55859-1.1211-0.55859-1.6797 0.55859-6.1602 0-10.641 0.55859-4.4805 0 2.8008 0.55859 9.5195 0.55859 3.3633-2.2344 2.8047-2.2344 1.125-1.6719m-87.359-7.2812c-10.078-4.4805-26.32-11.199-31.359-15.121-4.4805-1.6797-13.441-8.3984-18.48-11.199 2.2383 0.55859 0-0.55859-1.6797-1.6797-0.55859 0-1.1211 0-2.2383-0.55859-2.2383-2.2383-6.1602-5.6016-10.641-8.9609 2.2383 1.6797 5.0391 3.3594 7.2812 4.4805-0.55859-0.55859-0.55859-1.1211 0-1.1211 5.0391 3.9219 10.641 7.8398 16.801 11.762 7.8398 6.1602 47.602 23.52 54.879 24.641 0.55859 0-0.55859 0.55859 0 0.55859 2.8008 1.1211 5.0391 0.55859 6.1602 1.6797-7.8438 0-12.883-2.8008-20.723-4.4805m289.52-140.56s0 0.55859-0.55859 1.1211c-0.003906-0.5625-0.003906-0.5625 0.55859-1.1211m3.3594-10.641c-0.55859 1.6797-1.1211 3.3594-1.6797 5.0391 0.55859-1.1211 1.1211-2.8008 1.6797-5.0391m-259.84-285.04c-0.55859 0-1.1211 0.55859-1.6797 0.55859 1.1211 0 1.1211-0.55859 1.6797-0.55859m-11.762 2.7969v0m-42 14.562c0.55859 0 0.55859 0 0.55859-0.55859-0.55859 0-1.1211 0.55859-1.6797 0.55859h1.1211m101.92-21.281h-2.2383c1.1172-0.55859 1.6797-0.55859 2.2383 0 0-0.55859 0.55859-0.55859 0 0 0.55859-0.55859 0.55859 0 0 0m11.758 0.55859c-1.1211 0-2.2383-0.55859-4.4805-0.55859h1.1211 1.1211 1.1211 1.1211c0.55859 0.55859 1.1172 0.55859-0.003906 0.55859m21.281 2.2422c-2.8008-0.55859-5.0391-1.1211-7.8398-1.6797 2.2383 0.55859 4.4805 0.55859 6.1602 1.1211 0.55859 0.55859 1.6797 0.55859 1.6797 0.55859m179.76 114.8c-0.55859 0-0.55859 0-1.6797-1.6797-8.9609-17.922-24.641-43.121-46.48-64.398-21.84-21.84-50.398-39.762-76.16-49.84 1.6797 0.55859 3.9219 1.6797 2.8008 1.6797-22.398-8.9609-43.68-14.559-63.84-17.359-58.242-8.9648-118.72 5.0352-164.64 34.715 0 0.55859 0 0.55859-1.6797 1.6797-16.801 10.641-39.762 29.121-58.801 53.762s-33.602 54.32-40.879 81.199c0.55859-1.6797 1.1211-3.9219 1.1211-3.3594-15.121 53.762-11.762 100.24 3.3594 142.8 0-1.1211-2.2383-6.1602-1.1211-5.6016 2.2383 6.1602 4.4805 12.879 6.7188 19.039 3.3594 8.9609 8.3984 20.16 12.32 24.078-16.238-30.801-25.199-66.078-26.879-96.879 0.55859 5.0391 1.1211 14 2.8008 17.922-1.6797-21.281-3.3594-49.281 1.6797-70.559-1.6797 11.199-3.3594 25.762-2.8008 40.32-0.55859 10.641 3.9219 40.879 5.6016 44.238 0-0.55859-0.55859-3.3594-0.55859-3.3594 1.1211 3.3594 0 4.4805 1.1211 5.6016v-1.1211c3.3594 13.441 10.078 33.039 15.121 43.68 6.1602 13.441 13.441 25.762 21.84 37.52 0.55859 0.55859 0.55859 1.1211 1.1211 1.6797 1.6797 2.8008 5.0391 6.7188 6.1602 8.9609 0.55859 1.1211 0.55859 2.2383 1.6797 2.8008 10.641 15.121 24.641 30.238 40.879 43.121 22.398 20.16 66.641 42.559 105.84 48.719 13.441 2.8008 30.238 3.3594 40.32 3.9219 13.441 0.55859 36.398-2.8008 48.16-5.0391 69.441-13.441 134.4-62.719 165.76-129.92 34.152-66.641 31.352-147.28 1.1133-208.32" />
        <path
            d="m150.08 298.48c0 1.6797 0.55859 5.6016 0 5.0391 0-1.1211-0.55859-0.55859 0 1.1211 0.55859-0.55859 1.1211-2.2383 0.55859-5.6016 0.003906 0.5625-0.55859 0-0.55859-0.55859" />
        <path
            d="m175.28 383.6c-4.4805-8.9609-9.5195-24.078-12.32-29.68 4.4805 13.441 8.3984 22.961 12.879 31.922-1.1211-1.125-0.55859-1.125-0.55859-2.2422" />
        <path
            d="m151.76 287.28c0.55859-6.1602-0.55859-0.55859-0.55859-7.2812 0.55859 0 1.1211 2.2383 1.1211 3.3594-0.003907 2.2422-0.003907 3.3594-0.5625 3.9219m1.1172 7.2773c1.1211-2.2383 0-12.32 0-16.801 0-1.6797-1.1211-0.55859-1.1211-3.3594v-3.9219c0.55859 3.3594 1.1211-5.6016 1.1211-2.2383 0 1.1211-1.1211 3.3594-0.55859 3.9219 0-1.6797 0.55859-0.55859 0.55859 0 0-7.2812 0.55859-7.2812 1.1211-14.559-0.55859 0-0.55859 0-1.1211 1.1211 0.55859-2.2383 0-3.3594 0.55859-6.1602 0.55859 0 0 1.1211 0.55859 1.1211 1.1211-4.4805 0-5.0391 0.55859-9.5195 0.55859 1.1211 0.55859 3.3594 1.6797-0.55859 0-2.2383-0.55859-0.55859 0-2.2383 1.1211-4.4805 1.6797-7.2812 2.8008-11.199 0-2.2383 0-3.3594 1.1211-7.2812-0.55859-1.6797-1.1211 3.3594-1.6797 2.8008 0-1.1211 0.55859-2.8008 1.1211-5.0391 0.55859 1.1211 1.6797-1.1211 2.2383-4.4805-0.55859 0-1.1211 1.6797-1.1211 0 1.1211-2.2383 1.1211-3.3594 2.2383-6.7188 0 0 0.55859-0.55859 1.1211-0.55859 1.1211-3.9219 1.1211-2.8008 2.8008-6.7188 0-1.6797 0-2.2383-1.1211-1.6797-4.4805 10.641-5.6016 19.039-8.3984 23.52 0 3.3594 0.55859 2.2383-0.55859 7.2812-0.55859-0.55859-0.55859 1.1211-1.1211 0.55859-3.9219 19.602-6.1602 34.16-6.1602 43.121-1.1211 0.55859-1.1211 3.9219-1.6797 7.2812 0.55859 2.2383 0.55859 5.6016 0.55859 9.5195 1.1211-1.1211 1.6797 1.1211 2.2383 1.1211 0 5.0391 1.1211 14.559 0.55859 15.68 1.1211 1.1211 0 4.4805 1.1211 6.1602-0.55859 0.55859 0 3.3594-0.55859 1.1211 1.1211 4.4805 0.55859 6.7188 2.2383 8.9609-0.55859-2.2383-0.55859-3.9219-0.55859-3.9219 0.55859 3.3594 2.2383 11.199 1.6797 12.32 0.55859 3.3594 1.6797 5.0391 2.8008 8.9609 0.55859-1.1211 1.1211 3.3594 1.6797 1.6797-4.4805-18.48-7.2812-33.039-7.2812-47.039 0.56641-0.57812 0.007812 0.54297 0.56641-2.2578" />
        <path
            d="m208.32 148.96c-13.441 15.68-23.52 31.922-31.922 49.84 0.55859 0.55859 0 2.8008 1.6797 1.6797 1.1211-2.2383 1.6797-4.4805 2.8008-6.1602 0-0.55859-1.1211 1.1211-0.55859-0.55859 1.1211-1.6797 1.1211 0 2.2383-2.2383 0-0.55859-1.1211 0-0.55859-1.1211l0.55859 0.55859c1.1211-3.3594 2.2383-3.9219 3.9219-6.7188-0.55859-0.55859 0-0.55859 1.1211-1.6797-0.55859 0 1.6797-5.0391 2.2383-4.4805 0.55859 0-1.1211 2.2383-1.1211 2.8008 2.8008-4.4805 5.0391-8.3984 6.7188-11.199 1.6797 0 3.9219-6.1602 8.3984-11.199 0.55859-1.6797 1.1211-2.2383 1.1211-2.8008 1.6797-1.1211 2.8008-3.3594 1.1211-0.55859 3.3594-3.9219 3.3594-6.1602 7.8398-10.078-1.1172-1.6875-4.4766 4.4727-5.5977 3.9141" />
        <path
            d="m175.84 200.48c-3.3594 6.1602-4.4805 10.641-7.2812 17.922 0.55859 1.1211-2.2383 7.8398 0 6.1602 3.3594-11.762 4.4805-11.762 8.3984-22.398-1.1172 0.55469-1.1172-0.003906-1.1172-1.6836" />
    </g>
</svg>