<svg xmlns="http://www.w3.org/2000/svg" viewBox="0 0 64 64" width="64px" height="64px">
    <path fill="#C80A50"
        d="M53.828,28.435l-2.333,2.947c-0.288,0.364-0.288,0.878,0.001,1.242l2.334,2.943 c0.384,0.484,0.242,1.196-0.298,1.496l-3.283,1.824c-0.406,0.226-0.603,0.701-0.476,1.148l1.028,3.614 c0.169,0.593-0.234,1.196-0.847,1.267l-3.732,0.433c-0.461,0.054-0.825,0.418-0.878,0.879l-0.428,3.731 c-0.07,0.613-0.674,1.017-1.268,0.848l-3.611-1.031c-0.446-0.127-0.922,0.069-1.148,0.475l-1.83,3.283 c-0.3,0.538-1.011,0.68-1.494,0.297l-2.947-2.333c-0.364-0.288-0.878-0.288-1.242,0.001l-2.943,2.334 c-0.484,0.384-1.196,0.242-1.496-0.298l-1.824-3.283c-0.226-0.406-0.701-0.603-1.148-0.476l-3.614,1.028 c-0.593,0.169-1.196-0.234-1.267-0.847l-0.433-3.732c-0.054-0.461-0.418-0.825-0.879-0.878l-3.731-0.428 c-0.613-0.07-1.017-0.674-0.848-1.268l1.031-3.611c0.127-0.446-0.069-0.922-0.475-1.148l-3.283-1.83 c-0.538-0.3-0.68-1.011-0.297-1.494l2.333-2.947c0.288-0.364,0.288-0.878-0.001-1.242l-2.334-2.943 c-0.384-0.484-0.242-1.196,0.298-1.496l3.283-1.824c0.406-0.226,0.603-0.701,0.476-1.148l-1.028-3.614 c-0.169-0.593,0.234-1.196,0.847-1.267l3.732-0.433c0.461-0.054,0.825-0.418,0.878-0.879l0.428-3.731 c0.07-0.613,0.674-1.017,1.268-0.848l3.611,1.031c0.446,0.127,0.922-0.069,1.148-0.475l1.83-3.283 c0.3-0.538,1.011-0.68,1.494-0.297l2.947,2.333c0.364,0.288,0.878,0.288,1.242-0.001l2.943-2.334 c0.484-0.384,1.196-0.242,1.496,0.298l1.824,3.283c0.226,0.406,0.701,0.603,1.148,0.476l3.614-1.028 c0.593-0.169,1.196,0.234,1.267,0.847l0.433,3.732c0.054,0.461,0.418,0.825,0.879,0.878l3.731,0.428 c0.613,0.07,1.017,0.674,0.848,1.268l-1.031,3.611c-0.127,0.446,0.069,0.922,0.475,1.148l3.283,1.83 C54.07,27.241,54.211,27.951,53.828,28.435z" />
    <circle cx="32" cy="32" r="18" fill="#DC9600" />
    <circle cx="32" cy="32" r="16" fill="#FAB400" />
    <path fill="#FAB400" d="M32,9c-1.104,0-2-0.896-2-2V6c0-1.104,0.896-2,2-2s2,0.896,2,2v1C34,8.104,33.104,9,32,9z" />
    <path fill="#FAB400"
        d="M32,60c-1.104,0-2-0.896-2-2v-1c0-1.104,0.896-2,2-2s2,0.896,2,2v1C34,59.104,33.104,60,32,60z" />
    <path fill="#FAB400"
        d="M14.322,16.322c-0.512,0-1.023-0.195-1.414-0.586l-0.707-0.707c-0.781-0.781-0.781-2.047,0-2.828 s2.047-0.781,2.828,0l0.707,0.707c0.781,0.781,0.781,2.047,0,2.828C15.346,16.127,14.834,16.322,14.322,16.322z" />
    <path fill="#FAB400"
        d="M50.385,52.385c-0.512,0-1.023-0.195-1.414-0.586l-0.707-0.707c-0.781-0.781-0.781-2.047,0-2.828 s2.047-0.781,2.828,0l0.707,0.707c0.781,0.781,0.781,2.047,0,2.828C51.408,52.189,50.896,52.385,50.385,52.385z" />
    <path fill="#FAB400" d="M7,34H6c-1.104,0-2-0.896-2-2s0.896-2,2-2h1c1.104,0,2,0.896,2,2S8.104,34,7,34z" />
    <path fill="#FAB400" d="M58,34h-1c-1.104,0-2-0.896-2-2s0.896-2,2-2h1c1.104,0,2,0.896,2,2S59.104,34,58,34z" />
    <path fill="#FAB400"
        d="M13.615,52.385c-0.512,0-1.023-0.195-1.414-0.586c-0.781-0.781-0.781-2.047,0-2.828l0.707-0.707 c0.781-0.781,2.047-0.781,2.828,0s0.781,2.047,0,2.828l-0.707,0.707C14.639,52.189,14.127,52.385,13.615,52.385z" />
    <path fill="#FAB400"
        d="M49.678,16.322c-0.512,0-1.023-0.195-1.414-0.586c-0.781-0.781-0.781-2.047,0-2.828l0.707-0.707 c0.781-0.781,2.047-0.781,2.828,0s0.781,2.047,0,2.828l-0.707,0.707C50.701,16.127,50.189,16.322,49.678,16.322z" />
</svg>